<svg width="458" height="106" viewBox="0 0 458 106" fill="none" xmlns="http://www.w3.org/2000/svg">
<g clip-path="url(#clip0_2954_4015)">
<path d="M18 63H1V50.3287H3.87517V59.549H7.64354V50.9684H10.507V59.549H15.1336V50H17.9971V63H18Z" fill="#F49D00"/>
<path d="M458 0H18V63H458V0Z" fill="#005A99"/>
<path d="M18 0H29.6871L49.6079 35.4108L56.2356 48.8585H56.6277C56.0788 42.3483 55.1755 34.3716 55.1755 27.358V0H66V63H54.3129L34.3921 27.5307L27.7644 14.1415H27.3723C27.9212 20.8068 28.8245 28.3971 28.8245 35.4108V63H18V0Z" fill="white"/>
<path d="M73 41.5351C73 27.2459 82.9966 19 94 19C105.003 19 115 27.2459 115 41.5351C115 55.8243 105.003 64 94 64C82.9966 64 73 55.7541 73 41.5351ZM104.358 41.5351C104.358 32.9411 100.475 27.2108 94 27.2108C87.5254 27.2108 83.6423 32.9411 83.6423 41.5351C83.6423 50.1291 87.5254 55.7892 94 55.7892C100.475 55.7892 104.358 50.1291 104.358 41.5351Z" fill="white"/>
<path d="M124.234 48.3893V27.8253H118V20.2319L124.769 19.7757L125.982 8H134.496V19.7757H145.648V27.8253H134.496V48.3717C134.496 53.4516 136.491 55.9474 140.696 55.9474C142.193 55.9474 143.973 55.4559 145.255 54.9644L147 62.4166C144.613 63.1906 141.568 64 138.058 64C127.977 64 124.234 57.7075 124.234 48.3923V48.3893Z" fill="white"/>
<path d="M155 20H165V63H155V20Z" fill="white"/>
<path d="M175.003 20.3784L181.55 19.9232H200.211V27.9553H175V20.3784H175.003ZM181.007 15.4681C181.007 6.54023 185.264 0 195.814 0C199.05 0 201.999 0.737134 204 1.50951L201.999 9.05118C200.398 8.38453 198.688 8.03505 197.159 8.03505C193.448 8.03505 191.485 10.2964 191.485 15.2948V63H181.007V15.4681Z" fill="white"/>
<path d="M207 20H217V63H207V20Z" fill="white"/>
<path d="M228 41.5366C228 27.2464 238.186 19 249.71 19C255.207 19 259.226 21.0974 262.361 23.8209L257.428 30.3531C255.138 28.361 252.952 27.2084 250.239 27.2084C243.261 27.2084 238.434 32.9391 238.434 41.5336C238.434 50.1282 243.192 55.7887 249.923 55.7887C253.306 55.7887 256.407 54.1476 258.875 52.0852L263 58.7227C258.947 62.2858 253.801 64 248.867 64C237.061 64 228.003 55.7536 228.003 41.5336L228 41.5366Z" fill="white"/>
<path d="M269 51.422C269 42.2342 276.771 37.4458 294.736 35.5591C294.593 30.9462 292.705 27.1055 286.788 27.1055C282.438 27.1055 278.339 29.0273 274.49 31.3323L270.711 24.625C275.523 21.656 281.725 19 288.676 19C299.618 19 305 25.602 305 37.5511V62.9499H296.589L295.804 58.1995H295.519C291.597 61.4844 287.105 64 281.938 64C274.275 64 269 58.8986 269 51.422ZM294.736 51.4571V41.8159C282.866 43.2843 278.909 46.3235 278.909 50.6556C278.909 54.4466 281.548 56.1051 285.22 56.1051C288.891 56.1051 291.492 54.3939 294.736 51.4571Z" fill="white"/>
<path d="M317.234 48.3893V27.8253H311V20.2319L317.769 19.7757L318.982 8H327.496V19.7757H338.648V27.8253H327.496V48.3717C327.496 53.4516 329.491 55.9474 333.696 55.9474C335.193 55.9474 336.973 55.4559 338.255 54.9644L340 62.4166C337.613 63.1906 334.568 64 331.058 64C320.977 64 317.234 57.7075 317.234 48.3923V48.3893Z" fill="white"/>
<path d="M348 20H358V63H348V20Z" fill="white"/>
<path d="M369 41.5351C369 27.2459 378.997 19 390 19C401.003 19 411 27.2459 411 41.5351C411 55.8243 401.003 64 390 64C378.997 64 369 55.7541 369 41.5351ZM400.358 41.5351C400.358 32.9411 396.475 27.2108 390 27.2108C383.525 27.2108 379.642 32.9411 379.642 41.5351C379.642 50.1291 383.525 55.7892 390 55.7892C396.475 55.7892 400.358 50.1291 400.358 41.5351Z" fill="white"/>
<path d="M420.003 20.0483H428.566L429.366 25.8551H429.656C433.649 22.1127 438.184 19 444.283 19C453.827 19 458 25.2255 458 36.0688V63H447.547V37.3631C447.547 30.2972 445.441 27.6413 440.616 27.6413C436.697 27.6413 434.12 29.4949 430.453 32.9912V63H420V20.0483H420.003Z" fill="white"/>
<path d="M18 31V34.7206L14.1382 36.2012V42.9733L18 44.3725V48L1 41.3996V37.7837L18 31ZM11.2747 37.2979L4.96686 39.6309L11.2747 41.9203V37.2979Z" fill="#F49D00"/>
<path d="M12.0259 30L11.6945 26.6175C12.8409 26.4135 13.6829 25.9996 14.2203 25.3787C14.7577 24.7548 15.0264 23.9151 15.0264 22.8596C15.0264 21.739 14.7875 20.8963 14.3098 20.3286C13.8321 19.7609 13.2709 19.4771 12.6319 19.4771C12.2199 19.4771 11.8706 19.5954 11.581 19.8348C11.2914 20.0743 11.0406 20.4912 10.8287 21.0855C10.6854 21.4936 10.4346 22.422 10.0703 23.8708C9.60458 25.7335 9.03135 27.0433 8.35064 27.7943C7.39526 28.8528 6.2279 29.3791 4.85155 29.3791C3.96484 29.3791 3.13783 29.1307 2.36756 28.634C1.59728 28.1373 1.00912 27.4218 0.606071 26.4845C0.203019 25.5502 0 24.4177 0 23.0961C0 20.9347 0.477691 19.3086 1.43606 18.2146C2.39144 17.1235 3.66927 16.5499 5.26655 16.4938L5.42179 19.9709C4.52911 20.1187 3.88721 20.438 3.49312 20.9288C3.10201 21.4196 2.90496 22.1529 2.90496 23.1316C2.90496 24.1102 3.11395 24.9322 3.53491 25.5029C3.80362 25.8724 4.16487 26.0558 4.61569 26.0558C5.0277 26.0558 5.38 25.8843 5.67258 25.5383C6.04578 25.1007 6.43092 24.0334 6.83397 22.3421C7.23702 20.6509 7.655 19.4002 8.08492 18.5901C8.51485 17.7799 9.10599 17.1442 9.85238 16.686C10.5988 16.2277 11.5243 16 12.623 16C13.6202 16 14.5517 16.275 15.4235 16.822C16.2923 17.369 16.9401 18.1466 17.3641 19.1489C17.788 20.1512 18 21.3989 18 22.895C18 25.0712 17.4925 26.7447 16.4774 27.9096C15.4623 29.0775 13.9814 29.7723 12.0348 30H12.0259Z" fill="#F49D00"/>
<path d="M18 9.7316H10.8456L1 16V11.9493L7.72528 7.92216L1 3.98017V0L10.869 6.28897H18V9.7316Z" fill="#F49D00"/>
<path d="M353 17C356.866 17 360 13.866 360 10C360 6.13401 356.866 3 353 3C349.134 3 346 6.13401 346 10C346 13.866 349.134 17 353 17Z" fill="#F49D00"/>
<path d="M160 17C163.866 17 167 13.866 167 10C167 6.13401 163.866 3 160 3C156.134 3 153 6.13401 153 10C153 13.866 156.134 17 160 17Z" fill="#F49D00"/>
<path d="M212 17C215.866 17 219 13.866 219 10C219 6.13401 215.866 3 212 3C208.134 3 205 6.13401 205 10C205 13.866 208.134 17 212 17Z" fill="#F49D00"/>
<path d="M79.2778 98H76.3193L84.8762 74.696H87.7892L96.3462 98H93.3877L86.4238 78.3827H86.2417L79.2778 98ZM80.3702 88.8969H92.2953V91.4002H80.3702V88.8969ZM214.385 74.696V98H211.563V74.696H214.385Z" fill="#F49D00"/>
<path d="M99.6119 98V80.522H102.206V83.1619H102.388C102.707 82.2971 103.284 81.5954 104.118 81.0568C104.952 80.5182 105.893 80.2489 106.94 80.2489C107.137 80.2489 107.384 80.2527 107.68 80.2603C107.975 80.2678 108.199 80.2792 108.351 80.2944V83.0253C108.26 83.0026 108.051 82.9684 107.725 82.9229C107.407 82.8698 107.069 82.8433 106.712 82.8433C105.863 82.8433 105.104 83.0215 104.437 83.3781C103.777 83.727 103.253 84.2125 102.866 84.8346C102.487 85.449 102.297 86.1507 102.297 86.9397V98H99.6119ZM120.231 80.522V82.7978H111.173V80.522H120.231ZM113.813 76.3345H116.498V92.9933C116.498 93.7519 116.608 94.3208 116.828 94.7001C117.056 95.0718 117.344 95.3222 117.693 95.4511C118.05 95.5725 118.425 95.6332 118.82 95.6332C119.115 95.6332 119.358 95.618 119.548 95.5877C119.737 95.5497 119.889 95.5194 120.003 95.4966L120.549 97.909C120.367 97.9772 120.113 98.0455 119.787 98.1138C119.461 98.1896 119.047 98.2276 118.546 98.2276C117.788 98.2276 117.044 98.0645 116.316 97.7383C115.596 97.4121 114.996 96.9152 114.518 96.2476C114.048 95.5801 113.813 94.738 113.813 93.7215V76.3345ZM124.27 98V80.522H126.955V98H124.27ZM125.636 77.609C125.112 77.609 124.661 77.4307 124.281 77.0742C123.91 76.7176 123.724 76.289 123.724 75.7883C123.724 75.2877 123.91 74.8591 124.281 74.5025C124.661 74.146 125.112 73.9677 125.636 73.9677C126.159 73.9677 126.607 74.146 126.978 74.5025C127.358 74.8591 127.547 75.2877 127.547 75.7883C127.547 76.289 127.358 76.7176 126.978 77.0742C126.607 77.4307 126.159 77.609 125.636 77.609ZM139.657 80.522V82.7978H130.235V80.522H139.657ZM133.057 98V78.1096C133.057 77.1083 133.293 76.2738 133.763 75.6063C134.233 74.9387 134.844 74.438 135.595 74.1043C136.346 73.7705 137.139 73.6036 137.973 73.6036C138.633 73.6036 139.172 73.6567 139.589 73.7629C140.006 73.8691 140.317 73.9677 140.522 74.0587L139.748 76.38C139.612 76.3345 139.422 76.2776 139.179 76.2094C138.944 76.1411 138.633 76.1069 138.246 76.1069C137.359 76.1069 136.718 76.3307 136.323 76.7783C135.936 77.2259 135.743 77.8821 135.743 78.7469V98H133.057ZM143.421 98V80.522H146.106V98H143.421ZM144.786 77.609C144.263 77.609 143.811 77.4307 143.432 77.0742C143.06 76.7176 142.875 76.289 142.875 75.7883C142.875 75.2877 143.06 74.8591 143.432 74.5025C143.811 74.146 144.263 73.9677 144.786 73.9677C145.31 73.9677 145.757 74.146 146.129 74.5025C146.508 74.8591 146.698 75.2877 146.698 75.7883C146.698 76.289 146.508 76.7176 146.129 77.0742C145.757 77.4307 145.31 77.609 144.786 77.609ZM158.125 98.3641C156.487 98.3641 155.076 97.9772 153.892 97.2035C152.709 96.4297 151.799 95.3639 151.161 94.006C150.524 92.6481 150.205 91.0968 150.205 89.352C150.205 87.5769 150.532 86.0104 151.184 84.6525C151.844 83.2871 152.762 82.2212 153.938 81.455C155.121 80.6813 156.502 80.2944 158.08 80.2944C159.309 80.2944 160.416 80.522 161.402 80.9771C162.389 81.4323 163.196 82.0695 163.826 82.8888C164.456 83.7081 164.846 84.6639 164.998 85.7563H162.313C162.108 84.9598 161.653 84.2543 160.947 83.6398C160.249 83.0177 159.309 82.7067 158.125 82.7067C157.078 82.7067 156.16 82.9798 155.372 83.526C154.59 84.0646 153.979 84.827 153.539 85.8132C153.107 86.7918 152.891 87.941 152.891 89.261C152.891 90.6113 153.103 91.7871 153.528 92.7885C153.961 93.7898 154.567 94.5674 155.349 95.1211C156.138 95.6749 157.063 95.9518 158.125 95.9518C158.823 95.9518 159.457 95.8304 160.025 95.5877C160.594 95.3449 161.076 94.996 161.471 94.5408C161.865 94.0857 162.146 93.5395 162.313 92.9022H164.998C164.846 93.9339 164.471 94.8632 163.872 95.6901C163.28 96.5094 162.495 97.1618 161.516 97.6473C160.545 98.1252 159.415 98.3641 158.125 98.3641ZM168.924 98V80.522H171.609V98H168.924ZM170.289 77.609C169.766 77.609 169.314 77.4307 168.935 77.0742C168.563 76.7176 168.378 76.289 168.378 75.7883C168.378 75.2877 168.563 74.8591 168.935 74.5025C169.314 74.146 169.766 73.9677 170.289 73.9677C170.813 73.9677 171.26 74.146 171.632 74.5025C172.011 74.8591 172.201 75.2877 172.201 75.7883C172.201 76.289 172.011 76.7176 171.632 77.0742C171.26 77.4307 170.813 77.609 170.289 77.609ZM181.671 98.4096C180.563 98.4096 179.558 98.201 178.656 97.7838C177.753 97.359 177.036 96.7483 176.505 95.9518C175.974 95.1477 175.708 94.1767 175.708 93.0388C175.708 92.0374 175.906 91.2257 176.3 90.6037C176.695 89.9741 177.222 89.481 177.882 89.1244C178.542 88.7679 179.27 88.5024 180.067 88.3279C180.871 88.1459 181.679 88.0017 182.49 87.8955C183.552 87.759 184.413 87.6566 185.073 87.5883C185.741 87.5124 186.226 87.3873 186.53 87.2128C186.841 87.0383 186.996 86.7349 186.996 86.3025V86.2114C186.996 85.0887 186.689 84.2163 186.075 83.5943C185.468 82.9722 184.546 82.6612 183.31 82.6612C182.028 82.6612 181.022 82.9419 180.294 83.5033C179.566 84.0646 179.054 84.6639 178.758 85.3011L176.209 84.3908C176.664 83.3288 177.271 82.5019 178.03 81.9102C178.796 81.3109 179.63 80.8937 180.533 80.6585C181.443 80.4158 182.339 80.2944 183.219 80.2944C183.78 80.2944 184.425 80.3627 185.153 80.4992C185.889 80.6282 186.598 80.8975 187.281 81.3071C187.971 81.7168 188.544 82.335 188.999 83.1619C189.454 83.9888 189.682 85.0963 189.682 86.4845V98H186.996V95.6332H186.86C186.678 96.0125 186.374 96.4183 185.95 96.8507C185.525 97.2831 184.96 97.651 184.254 97.9545C183.549 98.2579 182.688 98.4096 181.671 98.4096ZM182.081 95.9973C183.143 95.9973 184.038 95.7887 184.766 95.3715C185.502 94.9542 186.056 94.4156 186.427 93.7557C186.807 93.0957 186.996 92.4016 186.996 91.6733V89.2155C186.883 89.352 186.632 89.4772 186.245 89.591C185.866 89.6972 185.426 89.792 184.925 89.8754C184.432 89.9513 183.951 90.0196 183.48 90.0803C183.018 90.1334 182.642 90.1789 182.354 90.2168C181.656 90.3078 181.003 90.4558 180.397 90.6606C179.797 90.8578 179.312 91.1575 178.94 91.5595C178.576 91.954 178.394 92.4926 178.394 93.1753C178.394 94.1084 178.739 94.8139 179.429 95.2918C180.127 95.7621 181.011 95.9973 182.081 95.9973ZM197.269 74.696V98H194.583V74.696H197.269ZM222.365 87.4859V98H219.679V80.522H222.274V83.2529H222.501C222.911 82.3654 223.533 81.6523 224.368 81.1137C225.202 80.5675 226.279 80.2944 227.599 80.2944C228.783 80.2944 229.818 80.5371 230.706 81.0226C231.593 81.5006 232.284 82.2288 232.777 83.2074C233.27 84.1784 233.516 85.4073 233.516 86.8942V98H230.831V87.0762C230.831 85.7032 230.474 84.6336 229.761 83.8674C229.048 83.0936 228.07 82.7067 226.825 82.7067C225.968 82.7067 225.202 82.8926 224.527 83.2643C223.859 83.636 223.332 84.1784 222.945 84.8915C222.558 85.6046 222.365 86.4694 222.365 87.4859ZM246.025 80.522V82.7978H236.967V80.522H246.025ZM239.607 76.3345H242.292V92.9933C242.292 93.7519 242.402 94.3208 242.622 94.7001C242.85 95.0718 243.138 95.3222 243.487 95.4511C243.844 95.5725 244.219 95.6332 244.614 95.6332C244.909 95.6332 245.152 95.618 245.342 95.5877C245.531 95.5497 245.683 95.5194 245.797 95.4966L246.343 97.909C246.161 97.9772 245.907 98.0455 245.581 98.1138C245.255 98.1896 244.841 98.2276 244.34 98.2276C243.582 98.2276 242.838 98.0645 242.11 97.7383C241.39 97.4121 240.79 96.9152 240.312 96.2476C239.842 95.5801 239.607 94.738 239.607 93.7215V76.3345ZM257.204 98.3641C255.52 98.3641 254.068 97.9924 252.846 97.249C251.632 96.498 250.696 95.4511 250.036 94.1084C249.383 92.7581 249.057 91.1878 249.057 89.3975C249.057 87.6072 249.383 86.0294 250.036 84.6639C250.696 83.2908 251.614 82.2212 252.789 81.455C253.973 80.6813 255.353 80.2944 256.931 80.2944C257.842 80.2944 258.741 80.4461 259.628 80.7496C260.516 81.053 261.324 81.5461 262.052 82.2288C262.78 82.904 263.36 83.7991 263.793 84.9142C264.225 86.0294 264.441 87.4024 264.441 89.0334V90.1713H250.969V87.85H261.71C261.71 86.8638 261.513 85.9839 261.119 85.2101C260.732 84.4363 260.178 83.8257 259.457 83.3781C258.744 82.9305 257.902 82.7067 256.931 82.7067C255.862 82.7067 254.936 82.9722 254.155 83.5033C253.381 84.0267 252.786 84.7094 252.368 85.5515C251.951 86.3935 251.742 87.2962 251.742 88.2596V89.8072C251.742 91.1271 251.97 92.2461 252.425 93.164C252.888 94.0743 253.529 94.7684 254.348 95.2463C255.168 95.7166 256.12 95.9518 257.204 95.9518C257.91 95.9518 258.547 95.8532 259.116 95.6559C259.693 95.4511 260.189 95.1477 260.607 94.7456C261.024 94.336 261.346 93.8277 261.574 93.2209L264.168 93.9491C263.895 94.8291 263.436 95.6028 262.791 96.2704C262.147 96.9304 261.35 97.4462 260.402 97.8179C259.454 98.1821 258.388 98.3641 257.204 98.3641ZM271.212 74.696V98H268.526V74.696H271.212ZM278.816 74.696V98H276.13V74.696H278.816ZM283.734 98V80.522H286.42V98H283.734ZM285.1 77.609C284.576 77.609 284.125 77.4307 283.746 77.0742C283.374 76.7176 283.188 76.289 283.188 75.7883C283.188 75.2877 283.374 74.8591 283.746 74.5025C284.125 74.146 284.576 73.9677 285.1 73.9677C285.623 73.9677 286.071 74.146 286.442 74.5025C286.822 74.8591 287.011 75.2877 287.011 75.7883C287.011 76.289 286.822 76.7176 286.442 77.0742C286.071 77.4307 285.623 77.609 285.1 77.609ZM298.393 104.918C297.096 104.918 295.981 104.751 295.048 104.418C294.115 104.092 293.337 103.659 292.715 103.121C292.101 102.589 291.611 102.021 291.247 101.414L293.386 99.9117C293.629 100.23 293.936 100.594 294.308 101.004C294.68 101.421 295.188 101.782 295.833 102.085C296.485 102.396 297.339 102.552 298.393 102.552C299.804 102.552 300.969 102.21 301.887 101.527C302.804 100.845 303.263 99.7751 303.263 98.3186V94.7684H303.036C302.839 95.087 302.558 95.4815 302.194 95.9518C301.837 96.4145 301.321 96.828 300.646 97.1921C299.979 97.5486 299.076 97.7269 297.938 97.7269C296.527 97.7269 295.26 97.3931 294.137 96.7256C293.022 96.058 292.139 95.087 291.486 93.8126C290.841 92.5381 290.519 90.9906 290.519 89.17C290.519 87.3797 290.834 85.8208 291.463 84.4932C292.093 83.1581 292.969 82.1264 294.092 81.3981C295.215 80.6623 296.512 80.2944 297.984 80.2944C299.121 80.2944 300.024 80.484 300.692 80.8633C301.367 81.2351 301.883 81.6599 302.239 82.1378C302.603 82.6081 302.884 82.995 303.081 83.2984H303.354V80.522H305.949V98.5007C305.949 100.003 305.607 101.224 304.925 102.165C304.25 103.113 303.339 103.807 302.194 104.247C301.056 104.695 299.789 104.918 298.393 104.918ZM298.302 95.3146C299.379 95.3146 300.29 95.068 301.033 94.5749C301.777 94.0819 302.342 93.3726 302.729 92.4471C303.115 91.5216 303.309 90.4141 303.309 89.1244C303.309 87.8652 303.119 86.7538 302.74 85.7904C302.361 84.827 301.799 84.0722 301.056 83.526C300.312 82.9798 299.395 82.7067 298.302 82.7067C297.164 82.7067 296.216 82.995 295.457 83.5715C294.706 84.1481 294.141 84.9218 293.762 85.8928C293.39 86.8638 293.204 87.941 293.204 89.1244C293.204 90.3382 293.394 91.4116 293.773 92.3447C294.16 93.2702 294.729 93.9984 295.48 94.5294C296.239 95.0529 297.179 95.3146 298.302 95.3146ZM318.193 98.3641C316.508 98.3641 315.056 97.9924 313.834 97.249C312.621 96.498 311.684 95.4511 311.024 94.1084C310.371 92.7581 310.045 91.1878 310.045 89.3975C310.045 87.6072 310.371 86.0294 311.024 84.6639C311.684 83.2908 312.602 82.2212 313.777 81.455C314.961 80.6813 316.342 80.2944 317.919 80.2944C318.83 80.2944 319.729 80.4461 320.616 80.7496C321.504 81.053 322.312 81.5461 323.04 82.2288C323.768 82.904 324.349 83.7991 324.781 84.9142C325.213 86.0294 325.43 87.4024 325.43 89.0334V90.1713H311.957V87.85H322.699C322.699 86.8638 322.501 85.9839 322.107 85.2101C321.72 84.4363 321.166 83.8257 320.446 83.3781C319.732 82.9305 318.89 82.7067 317.919 82.7067C316.85 82.7067 315.924 82.9722 315.143 83.5033C314.369 84.0267 313.774 84.7094 313.356 85.5515C312.939 86.3935 312.731 87.2962 312.731 88.2596V89.8072C312.731 91.1271 312.958 92.2461 313.413 93.164C313.876 94.0743 314.517 94.7684 315.336 95.2463C316.156 95.7166 317.108 95.9518 318.193 95.9518C318.898 95.9518 319.535 95.8532 320.104 95.6559C320.681 95.4511 321.178 95.1477 321.595 94.7456C322.012 94.336 322.334 93.8277 322.562 93.2209L325.156 93.9491C324.883 94.8291 324.424 95.6028 323.78 96.2704C323.135 96.9304 322.338 97.4462 321.39 97.8179C320.442 98.1821 319.376 98.3641 318.193 98.3641ZM332.2 87.4859V98H329.515V80.522H332.109V83.2529H332.337C332.746 82.3654 333.368 81.6523 334.203 81.1137C335.037 80.5675 336.114 80.2944 337.434 80.2944C338.618 80.2944 339.653 80.5371 340.541 81.0226C341.428 81.5006 342.119 82.2288 342.612 83.2074C343.105 84.1784 343.351 85.4073 343.351 86.8942V98H340.666V87.0762C340.666 85.7032 340.309 84.6336 339.596 83.8674C338.883 83.0936 337.905 82.7067 336.661 82.7067C335.803 82.7067 335.037 82.8926 334.362 83.2643C333.694 83.636 333.167 84.1784 332.78 84.8915C332.393 85.6046 332.2 86.4694 332.2 87.4859ZM355.359 98.3641C353.72 98.3641 352.309 97.9772 351.126 97.2035C349.943 96.4297 349.032 95.3639 348.395 94.006C347.758 92.6481 347.439 91.0968 347.439 89.352C347.439 87.5769 347.765 86.0104 348.418 84.6525C349.078 83.2871 349.996 82.2212 351.171 81.455C352.355 80.6813 353.736 80.2944 355.313 80.2944C356.542 80.2944 357.65 80.522 358.636 80.9771C359.622 81.4323 360.43 82.0695 361.06 82.8888C361.689 83.7081 362.08 84.6639 362.232 85.7563H359.546C359.342 84.9598 358.886 84.2543 358.181 83.6398C357.483 83.0177 356.542 82.7067 355.359 82.7067C354.312 82.7067 353.394 82.9798 352.605 83.526C351.824 84.0646 351.213 84.827 350.773 85.8132C350.341 86.7918 350.125 87.941 350.125 89.261C350.125 90.6113 350.337 91.7871 350.762 92.7885C351.194 93.7898 351.801 94.5674 352.582 95.1211C353.371 95.6749 354.297 95.9518 355.359 95.9518C356.057 95.9518 356.69 95.8304 357.259 95.5877C357.828 95.3449 358.31 94.996 358.704 94.5408C359.099 94.0857 359.379 93.5395 359.546 92.9022H362.232C362.08 93.9339 361.705 94.8632 361.105 95.6901C360.514 96.5094 359.728 97.1618 358.75 97.6473C357.779 98.1252 356.649 98.3641 355.359 98.3641ZM373.486 98.3641C371.801 98.3641 370.349 97.9924 369.127 97.249C367.914 96.498 366.977 95.4511 366.317 94.1084C365.664 92.7581 365.338 91.1878 365.338 89.3975C365.338 87.6072 365.664 86.0294 366.317 84.6639C366.977 83.2908 367.895 82.2212 369.071 81.455C370.254 80.6813 371.635 80.2944 373.212 80.2944C374.123 80.2944 375.022 80.4461 375.909 80.7496C376.797 81.053 377.605 81.5461 378.333 82.2288C379.061 82.904 379.642 83.7991 380.074 84.9142C380.506 86.0294 380.723 87.4024 380.723 89.0334V90.1713H367.25V87.85H377.992C377.992 86.8638 377.794 85.9839 377.4 85.2101C377.013 84.4363 376.459 83.8257 375.739 83.3781C375.025 82.9305 374.183 82.7067 373.212 82.7067C372.143 82.7067 371.217 82.9722 370.436 83.5033C369.662 84.0267 369.067 84.7094 368.65 85.5515C368.232 86.3935 368.024 87.2962 368.024 88.2596V89.8072C368.024 91.1271 368.251 92.2461 368.706 93.164C369.169 94.0743 369.81 94.7684 370.629 95.2463C371.449 95.7166 372.401 95.9518 373.486 95.9518C374.191 95.9518 374.828 95.8532 375.397 95.6559C375.974 95.4511 376.471 95.1477 376.888 94.7456C377.305 94.336 377.627 93.8277 377.855 93.2209L380.449 93.9491C380.176 94.8291 379.717 95.6028 379.073 96.2704C378.428 96.9304 377.631 97.4462 376.683 97.8179C375.735 98.1821 374.669 98.3641 373.486 98.3641Z" fill="white"/>
</g>
<defs>
<clipPath id="clip0_2954_4015">
<rect width="458" height="106" fill="white"/>
</clipPath>
</defs>
</svg>
