<?xml version="1.0" encoding="UTF-8"?>
<svg id="Livello_1" data-name="Livello 1" xmlns="http://www.w3.org/2000/svg" viewBox="0 0 931.83 215.07">
  <defs>
    <style>
      .cls-1 {
        fill: #f49d00;
      }

      .cls-1, .cls-2, .cls-3 {
        stroke-width: 0px;
      }

      .cls-2 {
        fill: #fff;
      }

      .cls-3 {
        fill: #005a99;
      }
    </style>
  </defs>
  <rect class="cls-3" x="60.23" y=".09" width="871.59" height="214.98"/>
  <g>
    <polygon class="cls-1" points="60.23 215.07 1.99 215.07 1.99 171.88 11.85 171.88 11.85 203.31 24.76 203.31 24.76 174.07 34.57 174.07 34.57 203.31 50.42 203.31 50.42 170.77 60.23 170.77 60.23 215.07"/>
    <path class="cls-1" d="M60.23,121.26v-12.79L1.99,131.79v12.43l58.24,22.69v-12.48l-13.23-4.8v-23.28l13.23-5.09ZM37.19,146.01l-21.61-7.86,21.61-8.03v15.89Z"/>
    <path class="cls-1" d="M40.28,106.14l-1.11-11.44c3.84-.69,6.66-2.09,8.46-4.19,1.8-2.11,2.7-4.95,2.7-8.52,0-3.79-.8-6.64-2.4-8.56-1.6-1.92-3.48-2.88-5.62-2.88-1.38,0-2.55.4-3.52,1.21-.97.81-1.81,2.22-2.52,4.23-.48,1.38-1.32,4.52-2.54,9.42-1.56,6.3-3.48,10.73-5.76,13.27-3.2,3.58-7.11,5.36-11.72,5.36-2.97,0-5.74-.84-8.32-2.52-2.58-1.68-4.55-4.1-5.9-7.27-1.35-3.16-2.03-6.99-2.03-11.46,0-7.31,1.6-12.81,4.81-16.51,3.2-3.69,7.48-5.63,12.83-5.82l.52,11.76c-2.99.5-5.14,1.58-6.46,3.24-1.31,1.66-1.97,4.14-1.97,7.45s.7,6.09,2.11,8.02c.9,1.25,2.11,1.87,3.62,1.87,1.38,0,2.56-.58,3.54-1.75,1.25-1.48,2.54-5.09,3.89-10.81s2.75-9.95,4.19-12.69c1.44-2.74,3.42-4.89,5.92-6.44s5.6-2.32,9.28-2.32c3.34,0,6.46.93,9.38,2.78,2.91,1.85,5.08,4.48,6.5,7.87,1.42,3.39,2.13,7.61,2.13,12.67,0,7.36-1.7,13.02-5.1,16.96-3.4,3.95-8.36,6.3-14.88,7.07Z"/>
    <polygon class="cls-1" points="60.23 33.13 35.72 33.13 1.99 54.47 1.99 40.68 25.03 26.97 1.99 13.55 1.99 0 35.8 21.41 60.23 21.41 60.23 33.13"/>
  </g>
  <g>
    <path class="cls-2" d="M182.18,88.23c-6.36-5.02-15.8-9.03-28.3-12.02l-28.52-6.85c-11.01-2.62-18.2-4.9-21.57-6.85-5.24-2.92-7.86-7.34-7.86-13.25,0-6.44,2.66-11.46,7.98-15.05,5.31-3.6,12.42-5.39,21.33-5.39,8.01,0,14.72,1.38,20.11,4.15,8.08,4.2,12.42,11.27,13.02,21.23h33.25c-.6-17.6-7.06-31.02-19.38-40.26C160.41,5.05,146.21.44,129.63.09c-.67-.01-1.35-.02-2.03-.02-.78,0-1.55.01-2.32.02-19.75.35-34.8,5.25-45.18,14.69-10.78,9.81-16.17,22.12-16.17,36.95,0,16.24,5.57,28.18,16.73,35.82,6.59,4.57,18.49,8.8,35.71,12.69l17.52,3.93c10.26,2.25,17.78,4.83,22.57,7.75,4.79,3,7.19,7.23,7.19,12.69,0,9.36-4.83,15.76-14.49,19.21-5.09,1.79-11.71,2.69-19.87,2.69-13.63,0-23.25-3.4-28.87-10.22-3.07-3.74-5.13-9.39-6.17-16.96h-33.02c0,17.22,6.18,30.76,18.53,40.6,12.35,9.85,29.31,14.77,50.87,14.77s37.46-5,49.03-14.99c11.56-10,17.35-22.56,17.35-37.68s-4.95-26.02-14.83-33.8Z"/>
    <path class="cls-2" d="M439.93,55.04c-8.05-6.63-18.4-9.94-31.06-9.94-10.1,0-18.45,2.47-25.04,7.41-3.67,2.77-7.56,7.3-11.68,13.59v-17.86h-30.88v122.19h31.89v-66.26c0-7.56,1.05-13.77,3.14-18.64,4.05-9.21,11.5-13.81,22.35-13.81,8.84,0,14.83,3.14,17.97,9.43,1.72,3.44,2.59,8.39,2.59,14.82v74.46h32.79v-82.43c0-15.35-4.03-26.33-12.07-32.96Z"/>
    <path class="cls-2" d="M579.88,93.84c-1.43-9.58-4.53-18-9.33-25.27-5.31-8.23-12.05-14.26-20.21-18.08-8.16-3.82-17.33-5.73-27.51-5.73-17.15,0-31.1,5.66-41.84,16.96-10.74,11.31-16.11,27.55-16.11,48.74,0,22.61,5.95,38.93,17.85,48.97,11.91,10.03,25.64,15.05,41.22,15.05,18.87,0,33.54-5.96,44.02-17.86,6.74-7.49,10.52-14.86,11.34-22.13h-32.68c-1.72,3.6-3.7,6.41-5.95,8.43-4.12,3.74-9.47,5.61-16.06,5.61-6.21,0-11.53-1.53-15.94-4.6-7.27-4.94-11.12-13.55-11.57-25.83h83.78c.15-10.56-.19-18.64-1.01-24.26ZM497.89,96.98c1.05-7.93,3.62-14.22,7.7-18.86,4.08-4.64,9.82-6.97,17.24-6.97,6.81,0,12.52,2.19,17.12,6.57,4.61,4.38,7.17,10.81,7.69,19.26h-49.75Z"/>
    <path class="cls-2" d="M666.45,45.16c-.41-.04-.92-.06-1.52-.06-9.58,0-17.37,2.51-23.36,7.52-3.66,3-7.97,8.58-12.91,16.74v-21.34h-30.55v122.41h32.23v-58.51c0-9.81,1.24-17.07,3.71-21.79,4.42-8.38,13.06-12.57,25.94-12.57.97,0,2.25.03,3.82.11,1.57.07,3.37.22,5.39.45v-32.8c-1.42-.07-2.34-.13-2.75-.16Z"/>
    <path class="cls-2" d="M761.47,48.02v17.63c-4.79-8.61-11.08-14.52-18.87-17.74-4.57-1.87-9.92-2.81-16.06-2.81-16.62,0-29.46,6.2-38.52,18.59-9.06,12.39-13.59,27.68-13.59,45.87s4.7,33.83,14.1,44.87c9.39,11.04,21.95,16.56,37.67,16.56,10.19,0,18.46-2.43,24.82-7.3,3.52-2.62,6.82-6.55,9.89-11.79v7.86c0,11.68-1.28,19.99-3.82,24.93-3.9,7.72-11.61,11.57-23.14,11.57-8.16,0-13.96-1.46-17.4-4.38-2.03-1.65-3.49-4.34-4.38-8.08h-34.82c1.05,12.2,6.52,21.37,16.4,27.51,2.29,1.42,4.73,2.68,7.32,3.76h64.22c8.43-3.43,14.86-8.51,19.31-15.21,5.32-8.02,7.98-19.92,7.98-35.72V48.02h-31.11ZM753.49,135.67c-5.16,5.66-11.49,8.48-18.98,8.48-11.23,0-19.01-5.16-23.35-15.5-2.4-5.53-3.6-11.86-3.6-18.97,0-8.24,1.12-15.17,3.37-20.78,4.27-10.56,12.02-15.84,23.25-15.84,8.23,0,14.8,3.04,19.71,9.1,4.9,6.07,7.35,14.9,7.35,26.5,0,12.36-2.58,21.36-7.75,27.01Z"/>
    <path class="cls-2" d="M895.47,48.02l-25.27,90.29-26.73-90.29h-35.6l44.92,127.8c.3.9-.35,3.37-1.96,7.42-1.61,4.04-3.35,6.69-5.22,7.97-1.95,1.35-4.35,2.21-7.19,2.58-2.85.38-5.84.49-8.99.34l-4.04-.23v21.17h38.77c1.64-1,3.02-2.16,4.13-3.48,4.72-5.58,11.12-19.97,19.21-43.18l42-120.39h-34.03Z"/>
    <path class="cls-2" d="M292.41,47.88l-25.27,90.29-26.73-90.29h-35.6l44.92,127.8c.3.9-.35,3.37-1.96,7.42-1.61,4.04-3.35,6.69-5.22,7.97-1.95,1.35-4.35,2.21-7.19,2.58-2.85.38-5.84.49-8.99.34l-4.04-.23v21.17h38.77c1.64-1,3.02-2.16,4.13-3.48,4.72-5.58,11.12-19.97,19.21-43.18l42-120.39h-34.03Z"/>
  </g>
</svg>